<mxfile host="app.diagrams.net" modified="2024-02-08T14:32:02.439Z" agent="Mozilla/5.0 (Windows NT 10.0; Win64; x64) AppleWebKit/537.36 (KHTML, like Gecko) Chrome/121.0.0.0 Safari/537.36" etag="dL94-uHmv-wFGm-Lvwz6" version="23.1.2" type="device">
  <diagram name="Page-1" id="XEemKz_6LiPW74UT8GhK">
    <mxGraphModel dx="2948" dy="2192" grid="1" gridSize="10" guides="1" tooltips="1" connect="1" arrows="1" fold="1" page="1" pageScale="1" pageWidth="850" pageHeight="1100" math="0" shadow="0">
      <root>
        <mxCell id="0" />
        <mxCell id="1" parent="0" />
        <mxCell id="pBHc-MxRLxCfekYopmGn-2" value="" style="rounded=0;whiteSpace=wrap;html=1;" vertex="1" parent="1">
          <mxGeometry x="40" y="150" width="510" height="360" as="geometry" />
        </mxCell>
        <mxCell id="pBHc-MxRLxCfekYopmGn-3" value="" style="rounded=0;whiteSpace=wrap;html=1;" vertex="1" parent="1">
          <mxGeometry x="790" y="150" width="250" height="370" as="geometry" />
        </mxCell>
        <mxCell id="pBHc-MxRLxCfekYopmGn-4" value="" style="rounded=0;whiteSpace=wrap;html=1;" vertex="1" parent="1">
          <mxGeometry x="40" y="150" width="510" height="90" as="geometry" />
        </mxCell>
        <mxCell id="pBHc-MxRLxCfekYopmGn-5" value="" style="rounded=0;whiteSpace=wrap;html=1;" vertex="1" parent="1">
          <mxGeometry x="790" y="150" width="250" height="90" as="geometry" />
        </mxCell>
        <mxCell id="pBHc-MxRLxCfekYopmGn-6" value="&lt;font color=&quot;#ff3333&quot; style=&quot;font-size: 40px;&quot;&gt;PAGE CONTENT&amp;nbsp;&lt;/font&gt;" style="text;html=1;strokeColor=none;fillColor=none;align=center;verticalAlign=middle;whiteSpace=wrap;rounded=0;fontColor=#EA6B66;" vertex="1" parent="1">
          <mxGeometry x="130" y="285" width="330" height="175" as="geometry" />
        </mxCell>
        <mxCell id="pBHc-MxRLxCfekYopmGn-7" value="&lt;font color=&quot;#ff3333&quot; style=&quot;font-size: 40px;&quot;&gt;PAGE CONTENT&amp;nbsp;&lt;/font&gt;" style="text;html=1;strokeColor=none;fillColor=none;align=center;verticalAlign=middle;whiteSpace=wrap;rounded=0;fontColor=#EA6B66;" vertex="1" parent="1">
          <mxGeometry x="820" y="270" width="190" height="175" as="geometry" />
        </mxCell>
        <mxCell id="pBHc-MxRLxCfekYopmGn-8" value="" style="shape=image;html=1;verticalAlign=top;verticalLabelPosition=bottom;labelBackgroundColor=#ffffff;imageAspect=0;aspect=fixed;image=https://cdn4.iconfinder.com/data/icons/flat-black/128/menu.png" vertex="1" parent="1">
          <mxGeometry x="40" y="185" width="50" height="50" as="geometry" />
        </mxCell>
        <mxCell id="pBHc-MxRLxCfekYopmGn-9" value="" style="sketch=0;outlineConnect=0;fontColor=#232F3E;gradientColor=none;fillColor=#232F3D;strokeColor=none;dashed=0;verticalLabelPosition=bottom;verticalAlign=top;align=center;html=1;fontSize=12;fontStyle=0;aspect=fixed;pointerEvents=1;shape=mxgraph.aws4.user;" vertex="1" parent="1">
          <mxGeometry x="90" y="200" width="20" height="20" as="geometry" />
        </mxCell>
        <mxCell id="pBHc-MxRLxCfekYopmGn-10" value="Username" style="text;html=1;strokeColor=none;fillColor=none;align=center;verticalAlign=middle;whiteSpace=wrap;rounded=0;" vertex="1" parent="1">
          <mxGeometry x="110" y="195" width="60" height="30" as="geometry" />
        </mxCell>
        <mxCell id="pBHc-MxRLxCfekYopmGn-11" value="&lt;font style=&quot;font-size: 30px;&quot;&gt;Grimsby &amp;amp; Clee sells&lt;/font&gt;" style="text;html=1;strokeColor=none;fillColor=none;align=center;verticalAlign=middle;whiteSpace=wrap;rounded=0;" vertex="1" parent="1">
          <mxGeometry x="130" y="165" width="310" height="30" as="geometry" />
        </mxCell>
        <mxCell id="pBHc-MxRLxCfekYopmGn-12" value="&lt;font style=&quot;font-size: 27px;&quot;&gt;Grimsby &amp;amp; Clee sells&lt;/font&gt;" style="text;html=1;strokeColor=none;fillColor=none;align=center;verticalAlign=middle;whiteSpace=wrap;rounded=0;" vertex="1" parent="1">
          <mxGeometry x="800" y="165" width="230" height="30" as="geometry" />
        </mxCell>
        <mxCell id="pBHc-MxRLxCfekYopmGn-13" value="" style="shape=image;html=1;verticalAlign=top;verticalLabelPosition=bottom;labelBackgroundColor=#ffffff;imageAspect=0;aspect=fixed;image=https://cdn4.iconfinder.com/data/icons/flat-black/128/menu.png" vertex="1" parent="1">
          <mxGeometry x="790" y="195" width="50" height="50" as="geometry" />
        </mxCell>
        <mxCell id="pBHc-MxRLxCfekYopmGn-14" value="" style="sketch=0;outlineConnect=0;fontColor=#232F3E;gradientColor=none;fillColor=#232F3D;strokeColor=none;dashed=0;verticalLabelPosition=bottom;verticalAlign=top;align=center;html=1;fontSize=12;fontStyle=0;aspect=fixed;pointerEvents=1;shape=mxgraph.aws4.user;" vertex="1" parent="1">
          <mxGeometry x="840" y="210" width="20" height="20" as="geometry" />
        </mxCell>
        <mxCell id="pBHc-MxRLxCfekYopmGn-15" value="Username" style="text;html=1;strokeColor=none;fillColor=none;align=center;verticalAlign=middle;whiteSpace=wrap;rounded=0;" vertex="1" parent="1">
          <mxGeometry x="860" y="205" width="60" height="30" as="geometry" />
        </mxCell>
        <mxCell id="pBHc-MxRLxCfekYopmGn-16" value="" style="rounded=0;whiteSpace=wrap;html=1;" vertex="1" parent="1">
          <mxGeometry x="40" y="590" width="510" height="360" as="geometry" />
        </mxCell>
        <mxCell id="pBHc-MxRLxCfekYopmGn-17" value="" style="rounded=0;whiteSpace=wrap;html=1;" vertex="1" parent="1">
          <mxGeometry x="790" y="590" width="250" height="370" as="geometry" />
        </mxCell>
        <mxCell id="pBHc-MxRLxCfekYopmGn-18" value="" style="rounded=0;whiteSpace=wrap;html=1;" vertex="1" parent="1">
          <mxGeometry x="40" y="590" width="510" height="90" as="geometry" />
        </mxCell>
        <mxCell id="pBHc-MxRLxCfekYopmGn-19" value="" style="rounded=0;whiteSpace=wrap;html=1;" vertex="1" parent="1">
          <mxGeometry x="790" y="590" width="250" height="90" as="geometry" />
        </mxCell>
        <mxCell id="pBHc-MxRLxCfekYopmGn-20" value="&lt;font color=&quot;#ff3333&quot; style=&quot;font-size: 40px;&quot;&gt;PAGE CONTENT&amp;nbsp;&lt;/font&gt;" style="text;html=1;strokeColor=none;fillColor=none;align=center;verticalAlign=middle;whiteSpace=wrap;rounded=0;fontColor=#EA6B66;" vertex="1" parent="1">
          <mxGeometry x="130" y="725" width="330" height="175" as="geometry" />
        </mxCell>
        <mxCell id="pBHc-MxRLxCfekYopmGn-21" value="&lt;font color=&quot;#ff3333&quot; style=&quot;font-size: 40px;&quot;&gt;PAGE CONTENT&amp;nbsp;&lt;/font&gt;" style="text;html=1;strokeColor=none;fillColor=none;align=center;verticalAlign=middle;whiteSpace=wrap;rounded=0;fontColor=#EA6B66;" vertex="1" parent="1">
          <mxGeometry x="820" y="710" width="190" height="175" as="geometry" />
        </mxCell>
        <mxCell id="pBHc-MxRLxCfekYopmGn-22" value="" style="shape=image;html=1;verticalAlign=top;verticalLabelPosition=bottom;labelBackgroundColor=#ffffff;imageAspect=0;aspect=fixed;image=https://cdn4.iconfinder.com/data/icons/flat-black/128/menu.png" vertex="1" parent="1">
          <mxGeometry x="40" y="625" width="50" height="50" as="geometry" />
        </mxCell>
        <mxCell id="pBHc-MxRLxCfekYopmGn-23" value="" style="sketch=0;outlineConnect=0;fontColor=#232F3E;gradientColor=none;fillColor=#232F3D;strokeColor=none;dashed=0;verticalLabelPosition=bottom;verticalAlign=top;align=center;html=1;fontSize=12;fontStyle=0;aspect=fixed;pointerEvents=1;shape=mxgraph.aws4.user;" vertex="1" parent="1">
          <mxGeometry x="90" y="640" width="20" height="20" as="geometry" />
        </mxCell>
        <mxCell id="pBHc-MxRLxCfekYopmGn-24" value="Username" style="text;html=1;strokeColor=none;fillColor=none;align=center;verticalAlign=middle;whiteSpace=wrap;rounded=0;" vertex="1" parent="1">
          <mxGeometry x="110" y="635" width="60" height="30" as="geometry" />
        </mxCell>
        <mxCell id="pBHc-MxRLxCfekYopmGn-25" value="&lt;font style=&quot;font-size: 30px;&quot;&gt;Grimsby &amp;amp; Clee sells&lt;/font&gt;" style="text;html=1;strokeColor=none;fillColor=none;align=center;verticalAlign=middle;whiteSpace=wrap;rounded=0;" vertex="1" parent="1">
          <mxGeometry x="130" y="605" width="310" height="30" as="geometry" />
        </mxCell>
        <mxCell id="pBHc-MxRLxCfekYopmGn-26" value="&lt;font style=&quot;font-size: 27px;&quot;&gt;Grimsby &amp;amp; Clee sells&lt;/font&gt;" style="text;html=1;strokeColor=none;fillColor=none;align=center;verticalAlign=middle;whiteSpace=wrap;rounded=0;" vertex="1" parent="1">
          <mxGeometry x="800" y="605" width="230" height="30" as="geometry" />
        </mxCell>
        <mxCell id="pBHc-MxRLxCfekYopmGn-27" value="" style="shape=image;html=1;verticalAlign=top;verticalLabelPosition=bottom;labelBackgroundColor=#ffffff;imageAspect=0;aspect=fixed;image=https://cdn4.iconfinder.com/data/icons/flat-black/128/menu.png" vertex="1" parent="1">
          <mxGeometry x="790" y="635" width="50" height="50" as="geometry" />
        </mxCell>
        <mxCell id="pBHc-MxRLxCfekYopmGn-28" value="" style="sketch=0;outlineConnect=0;fontColor=#232F3E;gradientColor=none;fillColor=#232F3D;strokeColor=none;dashed=0;verticalLabelPosition=bottom;verticalAlign=top;align=center;html=1;fontSize=12;fontStyle=0;aspect=fixed;pointerEvents=1;shape=mxgraph.aws4.user;" vertex="1" parent="1">
          <mxGeometry x="840" y="650" width="20" height="20" as="geometry" />
        </mxCell>
        <mxCell id="pBHc-MxRLxCfekYopmGn-29" value="Username" style="text;html=1;strokeColor=none;fillColor=none;align=center;verticalAlign=middle;whiteSpace=wrap;rounded=0;" vertex="1" parent="1">
          <mxGeometry x="860" y="645" width="60" height="30" as="geometry" />
        </mxCell>
        <mxCell id="pBHc-MxRLxCfekYopmGn-30" value="" style="rounded=0;whiteSpace=wrap;html=1;" vertex="1" parent="1">
          <mxGeometry x="40" y="590" width="280" height="360" as="geometry" />
        </mxCell>
        <mxCell id="pBHc-MxRLxCfekYopmGn-31" value="" style="rounded=0;whiteSpace=wrap;html=1;" vertex="1" parent="1">
          <mxGeometry x="790" y="590" width="150" height="370" as="geometry" />
        </mxCell>
        <mxCell id="pBHc-MxRLxCfekYopmGn-32" value="&lt;h1 style=&quot;font-size: 23px;&quot;&gt;&lt;p&gt;&lt;a class=&quot;sidelink&quot; href=&quot;https://localhost:44394/UI/adminhome.html&quot; style=&quot;box-sizing: border-box; margin: 0px; padding: 8px 8px 8px 32px; text-decoration: none; background-color: transparent; display: block; transition: all 0.3s ease 0s; cursor: pointer; font-style: normal; font-variant-ligatures: normal; font-variant-caps: normal; font-weight: 400; letter-spacing: normal; orphans: 2; text-align: left; text-indent: 0px; text-transform: none; widows: 2; word-spacing: 0px; -webkit-text-stroke-width: 0px;&quot;&gt;&lt;font face=&quot;Helvetica&quot; style=&quot;font-size: 23px;&quot; color=&quot;#000000&quot;&gt;Home&lt;/font&gt;&lt;/a&gt;&lt;a class=&quot;sidelink&quot; href=&quot;https://localhost:44394/UI/adminusersearch.html&quot; style=&quot;box-sizing: border-box; margin: 0px; padding: 8px 8px 8px 32px; text-decoration: none; background-color: transparent; display: block; transition: all 0.3s ease 0s; cursor: pointer; font-style: normal; font-variant-ligatures: normal; font-variant-caps: normal; font-weight: 400; letter-spacing: normal; orphans: 2; text-align: left; text-indent: 0px; text-transform: none; widows: 2; word-spacing: 0px; -webkit-text-stroke-width: 0px;&quot;&gt;&lt;font style=&quot;font-size: 23px;&quot; face=&quot;Helvetica&quot; color=&quot;#000000&quot;&gt;search users products&lt;/font&gt;&lt;/a&gt;&lt;a class=&quot;sidelink&quot; href=&quot;https://localhost:44394/UI/createadmin.html&quot; style=&quot;box-sizing: border-box; margin: 0px; padding: 8px 8px 8px 32px; text-decoration: none; background-color: transparent; display: block; transition: all 0.3s ease 0s; cursor: pointer; font-style: normal; font-variant-ligatures: normal; font-variant-caps: normal; font-weight: 400; letter-spacing: normal; orphans: 2; text-align: left; text-indent: 0px; text-transform: none; widows: 2; word-spacing: 0px; -webkit-text-stroke-width: 0px;&quot;&gt;&lt;font style=&quot;font-size: 23px;&quot; face=&quot;Helvetica&quot; color=&quot;#000000&quot;&gt;Create admin account&lt;/font&gt;&lt;/a&gt;&lt;a class=&quot;sidelink&quot; id=&quot;logout&quot; style=&quot;box-sizing: border-box; margin: 0px; padding: 8px 8px 8px 32px; text-decoration: none; background-color: transparent; display: block; transition: all 0.3s ease 0s; cursor: pointer; font-style: normal; font-variant-ligatures: normal; font-variant-caps: normal; font-weight: 400; letter-spacing: normal; orphans: 2; text-align: left; text-indent: 0px; text-transform: none; widows: 2; word-spacing: 0px; -webkit-text-stroke-width: 0px;&quot;&gt;&lt;font face=&quot;Helvetica&quot; style=&quot;font-size: 23px;&quot; color=&quot;#000000&quot;&gt;Logout&lt;/font&gt;&lt;/a&gt;&lt;/p&gt;&lt;/h1&gt;" style="text;whiteSpace=wrap;html=1;" vertex="1" parent="1">
          <mxGeometry x="20" y="605" width="320" height="230" as="geometry" />
        </mxCell>
        <mxCell id="pBHc-MxRLxCfekYopmGn-33" value="&lt;font style=&quot;font-size: 27px;&quot;&gt;x&lt;/font&gt;" style="text;html=1;align=center;verticalAlign=middle;resizable=0;points=[];autosize=1;strokeColor=none;fillColor=none;" vertex="1" parent="1">
          <mxGeometry x="275" y="590" width="40" height="50" as="geometry" />
        </mxCell>
        <mxCell id="pBHc-MxRLxCfekYopmGn-34" value="&lt;font style=&quot;font-size: 27px;&quot;&gt;x&lt;/font&gt;" style="text;html=1;align=center;verticalAlign=middle;resizable=0;points=[];autosize=1;strokeColor=none;fillColor=none;" vertex="1" parent="1">
          <mxGeometry x="900" y="590" width="40" height="50" as="geometry" />
        </mxCell>
        <mxCell id="pBHc-MxRLxCfekYopmGn-35" value="&lt;h1 style=&quot;font-size: 13px;&quot;&gt;&lt;p&gt;&lt;a style=&quot;box-sizing: border-box; margin: 0px; padding: 8px 8px 8px 32px; text-decoration: none; background-color: transparent; display: block; transition: all 0.3s ease 0s; cursor: pointer; font-style: normal; font-variant-ligatures: normal; font-variant-caps: normal; font-weight: 400; letter-spacing: normal; orphans: 2; text-align: left; text-indent: 0px; text-transform: none; widows: 2; word-spacing: 0px; -webkit-text-stroke-width: 0px;&quot; href=&quot;https://localhost:44394/UI/adminhome.html&quot; class=&quot;sidelink&quot;&gt;&lt;font color=&quot;#000000&quot; style=&quot;font-size: 13px;&quot; face=&quot;Helvetica&quot;&gt;Home&lt;/font&gt;&lt;/a&gt;&lt;a style=&quot;box-sizing: border-box; margin: 0px; padding: 8px 8px 8px 32px; text-decoration: none; background-color: transparent; display: block; transition: all 0.3s ease 0s; cursor: pointer; font-style: normal; font-variant-ligatures: normal; font-variant-caps: normal; font-weight: 400; letter-spacing: normal; orphans: 2; text-align: left; text-indent: 0px; text-transform: none; widows: 2; word-spacing: 0px; -webkit-text-stroke-width: 0px;&quot; href=&quot;https://localhost:44394/UI/adminusersearch.html&quot; class=&quot;sidelink&quot;&gt;&lt;font color=&quot;#000000&quot; face=&quot;Helvetica&quot; style=&quot;font-size: 13px;&quot;&gt;search users products&lt;/font&gt;&lt;/a&gt;&lt;a style=&quot;box-sizing: border-box; margin: 0px; padding: 8px 8px 8px 32px; text-decoration: none; background-color: transparent; display: block; transition: all 0.3s ease 0s; cursor: pointer; font-style: normal; font-variant-ligatures: normal; font-variant-caps: normal; font-weight: 400; letter-spacing: normal; orphans: 2; text-align: left; text-indent: 0px; text-transform: none; widows: 2; word-spacing: 0px; -webkit-text-stroke-width: 0px;&quot; href=&quot;https://localhost:44394/UI/createadmin.html&quot; class=&quot;sidelink&quot;&gt;&lt;font color=&quot;#000000&quot; face=&quot;Helvetica&quot; style=&quot;font-size: 13px;&quot;&gt;Create admin account&lt;/font&gt;&lt;/a&gt;&lt;a style=&quot;box-sizing: border-box; margin: 0px; padding: 8px 8px 8px 32px; text-decoration: none; background-color: transparent; display: block; transition: all 0.3s ease 0s; cursor: pointer; font-style: normal; font-variant-ligatures: normal; font-variant-caps: normal; font-weight: 400; letter-spacing: normal; orphans: 2; text-align: left; text-indent: 0px; text-transform: none; widows: 2; word-spacing: 0px; -webkit-text-stroke-width: 0px;&quot; id=&quot;logout&quot; class=&quot;sidelink&quot;&gt;&lt;font color=&quot;#000000&quot; style=&quot;font-size: 13px;&quot; face=&quot;Helvetica&quot;&gt;Logout&lt;/font&gt;&lt;/a&gt;&lt;/p&gt;&lt;/h1&gt;" style="text;whiteSpace=wrap;html=1;" vertex="1" parent="1">
          <mxGeometry x="770" y="610" width="320" height="230" as="geometry" />
        </mxCell>
        <mxCell id="pBHc-MxRLxCfekYopmGn-37" style="edgeStyle=orthogonalEdgeStyle;rounded=0;orthogonalLoop=1;jettySize=auto;html=1;strokeWidth=4;" edge="1" parent="1" source="pBHc-MxRLxCfekYopmGn-36">
          <mxGeometry relative="1" as="geometry">
            <mxPoint x="267.8322944641113" y="928.3898792266846" as="targetPoint" />
          </mxGeometry>
        </mxCell>
        <mxCell id="pBHc-MxRLxCfekYopmGn-38" style="edgeStyle=orthogonalEdgeStyle;shape=connector;rounded=0;orthogonalLoop=1;jettySize=auto;html=1;labelBackgroundColor=default;strokeColor=default;strokeWidth=4;align=center;verticalAlign=middle;fontFamily=Helvetica;fontSize=12;fontColor=default;endArrow=classic;" edge="1" parent="1" source="pBHc-MxRLxCfekYopmGn-36">
          <mxGeometry relative="1" as="geometry">
            <mxPoint x="813.2868537902832" y="943.1625995635986" as="targetPoint" />
          </mxGeometry>
        </mxCell>
        <mxCell id="pBHc-MxRLxCfekYopmGn-36" value="&lt;font style=&quot;font-size: 21px;&quot;&gt;Side menu to store all the admin links pages&lt;/font&gt;" style="text;html=1;strokeColor=none;fillColor=none;align=center;verticalAlign=middle;whiteSpace=wrap;rounded=0;" vertex="1" parent="1">
          <mxGeometry x="290" y="990" width="180" height="30" as="geometry" />
        </mxCell>
        <mxCell id="pBHc-MxRLxCfekYopmGn-43" style="edgeStyle=orthogonalEdgeStyle;shape=connector;rounded=0;orthogonalLoop=1;jettySize=auto;html=1;labelBackgroundColor=default;strokeColor=default;strokeWidth=4;align=center;verticalAlign=middle;fontFamily=Helvetica;fontSize=12;fontColor=default;endArrow=classic;" edge="1" parent="1" source="pBHc-MxRLxCfekYopmGn-40">
          <mxGeometry relative="1" as="geometry">
            <mxPoint x="124.65053176879883" y="653.3898792266846" as="targetPoint" />
          </mxGeometry>
        </mxCell>
        <mxCell id="pBHc-MxRLxCfekYopmGn-44" style="edgeStyle=orthogonalEdgeStyle;shape=connector;rounded=0;orthogonalLoop=1;jettySize=auto;html=1;labelBackgroundColor=default;strokeColor=default;strokeWidth=4;align=center;verticalAlign=middle;fontFamily=Helvetica;fontSize=12;fontColor=default;endArrow=classic;" edge="1" parent="1" source="pBHc-MxRLxCfekYopmGn-40">
          <mxGeometry relative="1" as="geometry">
            <mxPoint x="290.55957412719727" y="706.7989597320557" as="targetPoint" />
            <Array as="points">
              <mxPoint x="413" y="655" />
              <mxPoint x="413" y="707" />
            </Array>
          </mxGeometry>
        </mxCell>
        <mxCell id="pBHc-MxRLxCfekYopmGn-45" style="edgeStyle=orthogonalEdgeStyle;shape=connector;rounded=0;orthogonalLoop=1;jettySize=auto;html=1;labelBackgroundColor=default;strokeColor=default;strokeWidth=4;align=center;verticalAlign=middle;fontFamily=Helvetica;fontSize=12;fontColor=default;endArrow=classic;" edge="1" parent="1">
          <mxGeometry relative="1" as="geometry">
            <mxPoint x="797.3777351379395" y="644.2989597320557" as="targetPoint" />
            <mxPoint x="710" y="644" as="sourcePoint" />
          </mxGeometry>
        </mxCell>
        <mxCell id="pBHc-MxRLxCfekYopmGn-48" style="edgeStyle=orthogonalEdgeStyle;shape=connector;rounded=0;orthogonalLoop=1;jettySize=auto;html=1;labelBackgroundColor=default;strokeColor=default;strokeWidth=4;align=center;verticalAlign=middle;fontFamily=Helvetica;fontSize=12;fontColor=default;endArrow=classic;" edge="1" parent="1" source="pBHc-MxRLxCfekYopmGn-40">
          <mxGeometry relative="1" as="geometry">
            <mxPoint x="796.2414131164551" y="711.3444385528564" as="targetPoint" />
            <Array as="points">
              <mxPoint x="760" y="655" />
              <mxPoint x="760" y="711" />
            </Array>
          </mxGeometry>
        </mxCell>
        <mxCell id="pBHc-MxRLxCfekYopmGn-40" value="&lt;span style=&quot;font-size: 21px;&quot;&gt;Links to all the admin pages.&lt;/span&gt;" style="text;html=1;strokeColor=none;fillColor=none;align=center;verticalAlign=middle;whiteSpace=wrap;rounded=0;" vertex="1" parent="1">
          <mxGeometry x="540" y="640" width="180" height="30" as="geometry" />
        </mxCell>
        <mxCell id="pBHc-MxRLxCfekYopmGn-50" style="edgeStyle=orthogonalEdgeStyle;shape=connector;rounded=0;orthogonalLoop=1;jettySize=auto;html=1;labelBackgroundColor=default;strokeColor=default;strokeWidth=4;align=center;verticalAlign=middle;fontFamily=Helvetica;fontSize=12;fontColor=default;endArrow=classic;" edge="1" parent="1" source="pBHc-MxRLxCfekYopmGn-49">
          <mxGeometry relative="1" as="geometry">
            <mxPoint x="920.1050910949707" y="607.9353008270264" as="targetPoint" />
          </mxGeometry>
        </mxCell>
        <mxCell id="pBHc-MxRLxCfekYopmGn-51" style="edgeStyle=orthogonalEdgeStyle;shape=connector;rounded=0;orthogonalLoop=1;jettySize=auto;html=1;labelBackgroundColor=default;strokeColor=default;strokeWidth=4;align=center;verticalAlign=middle;fontFamily=Helvetica;fontSize=12;fontColor=default;endArrow=classic;" edge="1" parent="1" source="pBHc-MxRLxCfekYopmGn-49">
          <mxGeometry relative="1" as="geometry">
            <mxPoint x="296.2414131164551" y="598.8444004058838" as="targetPoint" />
          </mxGeometry>
        </mxCell>
        <mxCell id="pBHc-MxRLxCfekYopmGn-49" value="&lt;span style=&quot;font-size: 21px;&quot;&gt;button to close the side menu&lt;/span&gt;" style="text;html=1;strokeColor=none;fillColor=none;align=center;verticalAlign=middle;whiteSpace=wrap;rounded=0;" vertex="1" parent="1">
          <mxGeometry x="560" y="540" width="180" height="30" as="geometry" />
        </mxCell>
        <mxCell id="pBHc-MxRLxCfekYopmGn-53" style="edgeStyle=orthogonalEdgeStyle;shape=connector;rounded=0;orthogonalLoop=1;jettySize=auto;html=1;labelBackgroundColor=default;strokeColor=default;strokeWidth=4;align=center;verticalAlign=middle;fontFamily=Helvetica;fontSize=12;fontColor=default;endArrow=classic;" edge="1" parent="1" source="pBHc-MxRLxCfekYopmGn-52">
          <mxGeometry relative="1" as="geometry">
            <mxPoint x="138.2868537902832" y="786.3444385528564" as="targetPoint" />
            <Array as="points">
              <mxPoint x="470" y="786" />
              <mxPoint x="470" y="786" />
            </Array>
          </mxGeometry>
        </mxCell>
        <mxCell id="pBHc-MxRLxCfekYopmGn-54" style="edgeStyle=orthogonalEdgeStyle;shape=connector;rounded=0;orthogonalLoop=1;jettySize=auto;html=1;labelBackgroundColor=default;strokeColor=default;strokeWidth=4;align=center;verticalAlign=middle;fontFamily=Helvetica;fontSize=12;fontColor=default;endArrow=classic;" edge="1" parent="1" source="pBHc-MxRLxCfekYopmGn-52">
          <mxGeometry relative="1" as="geometry">
            <mxPoint x="818.9686164855957" y="751.1171588897705" as="targetPoint" />
          </mxGeometry>
        </mxCell>
        <mxCell id="pBHc-MxRLxCfekYopmGn-52" value="&lt;span style=&quot;font-size: 21px;&quot;&gt;Logout link so all the users data is deleted.&lt;/span&gt;" style="text;html=1;strokeColor=none;fillColor=none;align=center;verticalAlign=middle;whiteSpace=wrap;rounded=0;" vertex="1" parent="1">
          <mxGeometry x="570" y="770" width="180" height="30" as="geometry" />
        </mxCell>
        <mxCell id="pBHc-MxRLxCfekYopmGn-56" style="edgeStyle=orthogonalEdgeStyle;shape=connector;rounded=0;orthogonalLoop=1;jettySize=auto;html=1;labelBackgroundColor=default;strokeColor=default;strokeWidth=4;align=center;verticalAlign=middle;fontFamily=Helvetica;fontSize=12;fontColor=default;endArrow=classic;" edge="1" parent="1" source="pBHc-MxRLxCfekYopmGn-55">
          <mxGeometry relative="1" as="geometry">
            <mxPoint x="907.24993460519" y="149.32868521554133" as="targetPoint" />
          </mxGeometry>
        </mxCell>
        <mxCell id="pBHc-MxRLxCfekYopmGn-57" style="edgeStyle=orthogonalEdgeStyle;shape=connector;rounded=0;orthogonalLoop=1;jettySize=auto;html=1;labelBackgroundColor=default;strokeColor=default;strokeWidth=4;align=center;verticalAlign=middle;fontFamily=Helvetica;fontSize=12;fontColor=default;endArrow=classic;" edge="1" parent="1" source="pBHc-MxRLxCfekYopmGn-55">
          <mxGeometry relative="1" as="geometry">
            <mxPoint x="277.3797651018417" y="159.7183074951172" as="targetPoint" />
          </mxGeometry>
        </mxCell>
        <mxCell id="pBHc-MxRLxCfekYopmGn-55" value="&lt;span style=&quot;font-size: 21px;&quot;&gt;Name of the website&lt;/span&gt;" style="text;html=1;strokeColor=none;fillColor=none;align=center;verticalAlign=middle;whiteSpace=wrap;rounded=0;" vertex="1" parent="1">
          <mxGeometry x="560" y="80" width="180" height="30" as="geometry" />
        </mxCell>
        <mxCell id="pBHc-MxRLxCfekYopmGn-59" style="edgeStyle=orthogonalEdgeStyle;shape=connector;rounded=0;orthogonalLoop=1;jettySize=auto;html=1;labelBackgroundColor=default;strokeColor=default;strokeWidth=4;align=center;verticalAlign=middle;fontFamily=Helvetica;fontSize=12;fontColor=default;endArrow=classic;" edge="1" parent="1" source="pBHc-MxRLxCfekYopmGn-58">
          <mxGeometry relative="1" as="geometry">
            <mxPoint x="890.3667384556366" y="228.5494842529297" as="targetPoint" />
          </mxGeometry>
        </mxCell>
        <mxCell id="pBHc-MxRLxCfekYopmGn-60" style="edgeStyle=orthogonalEdgeStyle;shape=connector;rounded=0;orthogonalLoop=1;jettySize=auto;html=1;labelBackgroundColor=default;strokeColor=default;strokeWidth=4;align=center;verticalAlign=middle;fontFamily=Helvetica;fontSize=12;fontColor=default;endArrow=classic;" edge="1" parent="1" source="pBHc-MxRLxCfekYopmGn-58">
          <mxGeometry relative="1" as="geometry">
            <mxPoint x="141.01615251813632" y="225.95204598563055" as="targetPoint" />
          </mxGeometry>
        </mxCell>
        <mxCell id="pBHc-MxRLxCfekYopmGn-58" value="&lt;span style=&quot;font-size: 21px;&quot;&gt;Name of the user that is logged in.&lt;/span&gt;" style="text;html=1;strokeColor=none;fillColor=none;align=center;verticalAlign=middle;whiteSpace=wrap;rounded=0;" vertex="1" parent="1">
          <mxGeometry x="580" y="445" width="180" height="30" as="geometry" />
        </mxCell>
        <mxCell id="pBHc-MxRLxCfekYopmGn-62" style="edgeStyle=orthogonalEdgeStyle;shape=connector;rounded=0;orthogonalLoop=1;jettySize=auto;html=1;labelBackgroundColor=default;strokeColor=default;strokeWidth=4;align=center;verticalAlign=middle;fontFamily=Helvetica;fontSize=12;fontColor=default;endArrow=classic;" edge="1" parent="1" source="pBHc-MxRLxCfekYopmGn-61">
          <mxGeometry relative="1" as="geometry">
            <mxPoint x="854.0032130650116" y="241.5365447998047" as="targetPoint" />
          </mxGeometry>
        </mxCell>
        <mxCell id="pBHc-MxRLxCfekYopmGn-63" style="edgeStyle=orthogonalEdgeStyle;shape=connector;rounded=0;orthogonalLoop=1;jettySize=auto;html=1;labelBackgroundColor=default;strokeColor=default;strokeWidth=4;align=center;verticalAlign=middle;fontFamily=Helvetica;fontSize=12;fontColor=default;endArrow=classic;" edge="1" parent="1" source="pBHc-MxRLxCfekYopmGn-61">
          <mxGeometry relative="1" as="geometry">
            <mxPoint x="100.75640433175226" y="233.74431719098789" as="targetPoint" />
          </mxGeometry>
        </mxCell>
        <mxCell id="pBHc-MxRLxCfekYopmGn-61" value="&lt;span style=&quot;font-size: 21px;&quot;&gt;user icon to show that the user name is the users name&lt;/span&gt;" style="text;html=1;strokeColor=none;fillColor=none;align=center;verticalAlign=middle;whiteSpace=wrap;rounded=0;" vertex="1" parent="1">
          <mxGeometry x="580" y="315" width="180" height="30" as="geometry" />
        </mxCell>
        <mxCell id="pBHc-MxRLxCfekYopmGn-65" style="edgeStyle=orthogonalEdgeStyle;shape=connector;rounded=0;orthogonalLoop=1;jettySize=auto;html=1;labelBackgroundColor=default;strokeColor=default;strokeWidth=4;align=center;verticalAlign=middle;fontFamily=Helvetica;fontSize=12;fontColor=default;endArrow=classic;" edge="1" parent="1" source="pBHc-MxRLxCfekYopmGn-64">
          <mxGeometry relative="1" as="geometry">
            <mxPoint x="65.04220581054688" y="223.3546949114118" as="targetPoint" />
          </mxGeometry>
        </mxCell>
        <mxCell id="pBHc-MxRLxCfekYopmGn-64" value="&lt;span style=&quot;font-size: 21px;&quot;&gt;Button to activate&amp;nbsp;the side menu.&lt;/span&gt;" style="text;html=1;strokeColor=none;fillColor=none;align=center;verticalAlign=middle;whiteSpace=wrap;rounded=0;" vertex="1" parent="1">
          <mxGeometry x="-200" y="290" width="180" height="25" as="geometry" />
        </mxCell>
        <mxCell id="pBHc-MxRLxCfekYopmGn-67" style="edgeStyle=orthogonalEdgeStyle;shape=connector;rounded=0;orthogonalLoop=1;jettySize=auto;html=1;labelBackgroundColor=default;strokeColor=default;strokeWidth=4;align=center;verticalAlign=middle;fontFamily=Helvetica;fontSize=12;fontColor=default;endArrow=classic;" edge="1" parent="1" source="pBHc-MxRLxCfekYopmGn-66">
          <mxGeometry relative="1" as="geometry">
            <mxPoint x="793.6135471888952" y="228.54952784947" as="targetPoint" />
            <Array as="points">
              <mxPoint x="760" y="197" />
              <mxPoint x="760" y="229" />
            </Array>
          </mxGeometry>
        </mxCell>
        <mxCell id="pBHc-MxRLxCfekYopmGn-66" value="&lt;span style=&quot;font-size: 21px;&quot;&gt;Button to activate&amp;nbsp;the side menu.&lt;/span&gt;" style="text;html=1;strokeColor=none;fillColor=none;align=center;verticalAlign=middle;whiteSpace=wrap;rounded=0;" vertex="1" parent="1">
          <mxGeometry x="560" y="185" width="180" height="25" as="geometry" />
        </mxCell>
        <mxCell id="pBHc-MxRLxCfekYopmGn-68" value="&lt;font style=&quot;font-size: 36px;&quot;&gt;&lt;b&gt;Admin header&lt;/b&gt;&lt;/font&gt;" style="text;html=1;strokeColor=none;fillColor=none;align=center;verticalAlign=middle;whiteSpace=wrap;rounded=0;fontFamily=Helvetica;fontSize=12;fontColor=default;" vertex="1" parent="1">
          <mxGeometry x="400" y="-70" width="390" height="150" as="geometry" />
        </mxCell>
      </root>
    </mxGraphModel>
  </diagram>
</mxfile>
